<svg width="500" height="500" viewBox="0 0 500 500" fill="none" xmlns="http://www.w3.org/2000/svg">
<g clip-path="url(#clip0_201_2)">
<path d="M464.6 272.6C477.1 260.1 477.1 239.8 464.6 227.3L304.6 67.3C292.1 54.8 271.8 54.8 259.3 67.3C246.8 79.8 246.8 100.1 259.3 112.6L364.8 218H58C40.3 218 26 232.3 26 250C26 267.7 40.3 282 58 282H364.7L259.4 387.4C246.9 399.9 246.9 420.2 259.4 432.7C271.9 445.2 292.2 445.2 304.7 432.7L464.7 272.7L464.6 272.6Z" fill="#DDDDDD"/>
</g>
<defs>
<clipPath id="clip0_201_2">
<rect width="500" height="500" fill="white"/>
</clipPath>
</defs>
</svg>
