<svg width="104" height="104" viewBox="0 0 104 104" fill="none" xmlns="http://www.w3.org/2000/svg">
<path d="M76.375 29.5C79.4805 29.5 82 32.0184 82 35.125C82 36.8945 81.168 38.5586 79.75 39.625L54.25 58.75C52.9141 59.7461 51.0859 59.7461 49.75 58.75L24.25 39.625C22.8336 38.5586 22 36.8945 22 35.125C22 32.0184 24.5184 29.5 27.625 29.5H76.375ZM47.5 61.75C50.1719 63.7539 53.8281 63.7539 56.5 61.75L82 42.625V67C82 71.1367 78.6367 74.5 74.5 74.5H29.5C25.3574 74.5 22 71.1367 22 67V42.625L47.5 61.75Z" fill="white"/>
<rect x="3.5" y="3.5" width="97" height="97" rx="9.5" stroke="white" stroke-width="7"/>
</svg>
