<svg width="104" height="104" viewBox="0 0 104 104" fill="none" xmlns="http://www.w3.org/2000/svg">
<rect x="3.5" y="3.5" width="97" height="97" rx="9.5" stroke="white" stroke-width="7"/>
<g clip-path="url(#clip0_505_37)">
<path d="M36.9474 75.3762H25.8816V39.7413H36.9474V75.3762ZM31.4086 34.8804C27.8701 34.8804 25 31.9495 25 28.411C25 26.7114 25.6752 25.0813 26.877 23.8795C28.0789 22.6776 29.7089 22.0024 31.4086 22.0024C33.1082 22.0024 34.7383 22.6776 35.9401 23.8795C37.142 25.0813 37.8171 26.7114 37.8171 28.411C37.8171 31.9495 34.9459 34.8804 31.4086 34.8804ZM78.3631 75.3762H67.3211V58.0294C67.3211 53.8952 67.2377 48.5934 61.5678 48.5934C55.8145 48.5934 54.9329 53.085 54.9329 57.7315V75.3762H43.879V39.7413H54.4921V44.6022H54.647C56.1243 41.8024 59.7331 38.8477 65.117 38.8477C76.3163 38.8477 78.375 46.2225 78.375 55.8014V75.3762H78.3631Z" fill="white"/>
</g>
<defs>
<clipPath id="clip0_505_37">
<rect width="53.375" height="61" fill="white" transform="translate(25 22)"/>
</clipPath>
</defs>
</svg>
