<svg width="404" height="104" viewBox="0 0 404 104" fill="none" xmlns="http://www.w3.org/2000/svg">
<rect x="3.5" y="3.5" width="397" height="97" rx="5.5" stroke="white" stroke-width="7"/>
<path d="M75.8425 73.8242C76.8718 73.8242 77.5983 74.0664 78.0222 74.5508C78.4763 75.0049 78.7033 75.792 78.7033 76.9121C78.7033 78.0322 78.4763 78.8345 78.0222 79.3188C77.5983 79.7729 76.8718 80 75.8425 80H69.0764C68.0471 80 67.3054 79.7729 66.8513 79.3188C66.4274 78.8345 66.2155 78.0322 66.2155 76.9121V50.0293C66.2155 47.9404 65.8674 46.3813 65.1711 45.3521C64.5051 44.2925 63.4152 43.7627 61.9016 43.7627C60.4787 43.7627 59.1618 44.4287 57.9509 45.7607C56.7399 47.0625 55.7712 48.894 55.0446 51.2554C54.3483 53.5864 54.0002 56.2505 54.0002 59.2476V73.8242H56.5886C57.6179 73.8242 58.3444 74.0664 58.7683 74.5508C59.2224 75.0049 59.4494 75.792 59.4494 76.9121C59.4494 78.0322 59.2224 78.8345 58.7683 79.3188C58.3444 79.7729 57.6179 80 56.5886 80H50.0495C49.0202 80 48.2785 79.7729 47.8244 79.3188C47.4006 78.8345 47.1887 78.0322 47.1887 76.9121V50.0293C47.1887 47.9404 46.8405 46.3813 46.1442 45.3521C45.4782 44.2925 44.3884 43.7627 42.8747 43.7627C41.4519 43.7627 40.135 44.4287 38.924 45.7607C37.7131 47.0625 36.7443 48.894 36.0178 51.2554C35.3215 53.5864 34.9733 56.2505 34.9733 59.2476V73.8242H37.3347C38.364 73.8242 39.0905 74.0664 39.5144 74.5508C39.9685 75.0049 40.1955 75.792 40.1955 76.9121C40.1955 78.0322 39.9685 78.8345 39.5144 79.3188C39.0905 79.7729 38.364 80 37.3347 80H24.4382C23.4089 80 22.6672 79.7729 22.2131 79.3188C21.7893 78.8345 21.5773 78.0322 21.5773 76.9121C21.5773 75.792 21.7893 75.0049 22.2131 74.5508C22.6672 74.0664 23.4089 73.8242 24.4382 73.8242H28.1618V44.2168H24.4382C23.4089 44.2168 22.6672 43.9897 22.2131 43.5356C21.7893 43.0513 21.5773 42.249 21.5773 41.1289C21.5773 40.0088 21.7893 39.2217 22.2131 38.7676C22.6672 38.2832 23.4089 38.041 24.4382 38.041H31.2043C32.2336 38.041 32.9602 38.2832 33.384 38.7676C33.8381 39.2217 34.0651 40.0088 34.0651 41.1289V45.6245C35.3669 42.7788 36.926 40.6445 38.7424 39.2217C40.5588 37.7686 42.5266 37.042 44.6457 37.042C46.7043 37.042 48.5056 37.7383 50.0495 39.1309C51.5935 40.5234 52.6379 42.5669 53.1828 45.2612C55.8772 39.7817 59.3586 37.042 63.6272 37.042C65.4133 37.042 67.0026 37.4961 68.3952 38.4043C69.8181 39.2822 70.9382 40.6445 71.7556 42.4912C72.6032 44.3076 73.0271 46.5479 73.0271 49.2119V73.8242H75.8425ZM132.373 38.041C133.402 38.041 134.129 38.2832 134.552 38.7676C135.006 39.2217 135.234 40.0088 135.234 41.1289C135.234 42.249 135.006 43.0513 134.552 43.5356C134.129 43.9897 133.402 44.2168 132.373 44.2168H129.421L115.934 58.4302L130.511 73.8242H132.827C133.856 73.8242 134.583 74.0664 135.006 74.5508C135.461 75.0049 135.688 75.792 135.688 76.9121C135.688 78.0322 135.461 78.8345 135.006 79.3188C134.583 79.7729 133.856 80 132.827 80H117.206C116.176 80 115.435 79.7729 114.981 79.3188C114.557 78.8345 114.345 78.0322 114.345 76.9121C114.345 75.792 114.557 75.0049 114.981 74.5508C115.435 74.0664 116.176 73.8242 117.206 73.8242H121.565L110.667 62.1084L99.8136 73.8242H103.401C104.43 73.8242 105.157 74.0664 105.581 74.5508C106.035 75.0049 106.262 75.792 106.262 76.9121C106.262 78.0322 106.035 78.8345 105.581 79.3188C105.157 79.7729 104.43 80 103.401 80H89.1422C88.1129 80 87.3712 79.7729 86.9171 79.3188C86.4933 78.8345 86.2814 78.0322 86.2814 76.9121C86.2814 75.792 86.4933 75.0049 86.9171 74.5508C87.3712 74.0664 88.1129 73.8242 89.1422 73.8242H91.4127L106.171 58.3394L92.8204 44.2168H89.5963C88.567 44.2168 87.8253 43.9897 87.3712 43.5356C86.9474 43.0513 86.7355 42.249 86.7355 41.1289C86.7355 40.0088 86.9474 39.2217 87.3712 38.7676C87.8253 38.2832 88.567 38.041 89.5963 38.041H105.217C106.247 38.041 106.973 38.2832 107.397 38.7676C107.851 39.2217 108.078 40.0088 108.078 41.1289C108.078 42.249 107.851 43.0513 107.397 43.5356C106.973 43.9897 106.247 44.2168 105.217 44.2168H101.766L111.393 54.6611L121.066 44.2168H118.568C117.539 44.2168 116.797 43.9897 116.343 43.5356C115.919 43.0513 115.707 42.249 115.707 41.1289C115.707 40.0088 115.919 39.2217 116.343 38.7676C116.797 38.2832 117.539 38.041 118.568 38.041H132.373ZM188.676 37.042C189.917 37.042 190.795 37.269 191.31 37.7231C191.824 38.1772 192.082 38.9341 192.082 39.9937V53.1626C192.082 54.2222 191.824 54.979 191.31 55.4331C190.795 55.8872 189.917 56.1143 188.676 56.1143C187.435 56.1143 186.557 55.8872 186.042 55.4331C185.527 54.979 185.27 54.2222 185.27 53.1626C185.27 51.3159 184.786 49.6812 183.817 48.2583C182.848 46.8354 181.395 45.7305 179.458 44.9434C177.55 44.1562 175.25 43.7627 172.555 43.7627C169.649 43.7627 167.045 44.4136 164.745 45.7153C162.444 47.0171 160.643 48.8335 159.341 51.1646C158.039 53.4956 157.388 56.1143 157.388 59.0205C157.388 61.957 157.994 64.5908 159.205 66.9219C160.446 69.2227 162.171 71.0239 164.381 72.3257C166.622 73.6274 169.195 74.2783 172.101 74.2783C174.886 74.2783 177.581 73.8545 180.184 73.0068C182.818 72.1289 185.21 70.8726 187.359 69.2378C187.995 68.7534 188.585 68.5112 189.13 68.5112C190.008 68.5112 190.825 69.1318 191.582 70.373C192.036 71.1299 192.263 71.8564 192.263 72.5527C192.263 73.6123 191.779 74.4902 190.81 75.1865C188.388 77.0029 185.527 78.4258 182.228 79.4551C178.928 80.4844 175.552 80.999 172.101 80.999C167.772 80.999 163.942 80.0454 160.612 78.1382C157.313 76.231 154.754 73.6123 152.938 70.2822C151.122 66.9521 150.213 63.1982 150.213 59.0205C150.213 54.8428 151.137 51.0889 152.983 47.7588C154.83 44.4287 157.403 41.8101 160.703 39.9028C164.033 37.9956 167.833 37.042 172.101 37.042C174.795 37.042 177.263 37.5415 179.503 38.5405C181.773 39.5093 183.696 40.9019 185.27 42.7183V39.9937C185.27 38.9341 185.527 38.1772 186.042 37.7231C186.557 37.269 187.435 37.042 188.676 37.042ZM247.567 37.042C249.929 37.042 252.139 37.6475 254.197 38.8584C255.408 39.585 256.014 40.5234 256.014 41.6738C256.014 42.2188 255.877 42.8545 255.605 43.5811C254.969 45.3066 254.091 46.1694 252.971 46.1694C252.517 46.1694 252.093 46.0483 251.7 45.8062C250.216 44.9888 248.627 44.5801 246.932 44.5801C244.207 44.5801 241.467 45.5337 238.712 47.4409C235.957 49.3179 233.687 51.8306 231.901 54.979C230.145 58.1274 229.267 61.4727 229.267 65.0146V73.8242H244.57C245.6 73.8242 246.326 74.0664 246.75 74.5508C247.204 75.0049 247.431 75.792 247.431 76.9121C247.431 78.0322 247.204 78.8345 246.75 79.3188C246.326 79.7729 245.6 80 244.57 80H215.326C214.297 80 213.555 79.7729 213.101 79.3188C212.677 78.8345 212.465 78.0322 212.465 76.9121C212.465 75.792 212.677 75.0049 213.101 74.5508C213.555 74.0664 214.297 73.8242 215.326 73.8242H222.456V44.2168H216.688C215.659 44.2168 214.917 43.9897 214.463 43.5356C214.04 43.0513 213.828 42.249 213.828 41.1289C213.828 40.0088 214.04 39.2217 214.463 38.7676C214.917 38.2832 215.659 38.041 216.688 38.041H225.952C226.981 38.041 227.708 38.2832 228.132 38.7676C228.586 39.2217 228.813 40.0088 228.813 41.1289V50.3018C230.266 47.6377 232.022 45.3066 234.081 43.3086C236.139 41.3105 238.334 39.7666 240.665 38.6768C242.996 37.5869 245.297 37.042 247.567 37.042ZM280.257 20.4219C281.286 20.4219 282.013 20.6641 282.437 21.1484C282.891 21.6025 283.118 22.3896 283.118 23.5098V44.5347C287.023 39.5396 291.822 37.042 297.513 37.042C301.267 37.042 304.627 37.9351 307.594 39.7212C310.561 41.4771 312.892 44.02 314.587 47.3501C316.283 50.6499 317.13 54.54 317.13 59.0205C317.13 63.501 316.283 67.4062 314.587 70.7363C312.892 74.0361 310.561 76.5791 307.594 78.3652C304.627 80.1211 301.267 80.999 297.513 80.999C294.546 80.999 291.807 80.333 289.294 79.001C286.781 77.6689 284.571 75.7617 282.664 73.2793V76.9121C282.664 78.0322 282.437 78.8345 281.983 79.3188C281.559 79.7729 280.832 80 279.803 80H272.583C271.554 80 270.812 79.7729 270.358 79.3188C269.934 78.8345 269.722 78.0322 269.722 76.9121C269.722 75.792 269.934 75.0049 270.358 74.5508C270.812 74.0664 271.554 73.8242 272.583 73.8242H276.307V26.5977H271.675C270.645 26.5977 269.904 26.3706 269.45 25.9165C269.026 25.4321 268.814 24.6299 268.814 23.5098C268.814 22.3896 269.026 21.6025 269.45 21.1484C269.904 20.6641 270.645 20.4219 271.675 20.4219H280.257ZM297.059 43.7627C294.365 43.7627 291.958 44.3682 289.839 45.5791C287.75 46.79 286.1 48.5459 284.889 50.8467C283.708 53.1475 283.118 55.8721 283.118 59.0205C283.118 62.1689 283.708 64.8936 284.889 67.1943C286.1 69.4951 287.75 71.251 289.839 72.4619C291.958 73.6729 294.365 74.2783 297.059 74.2783C299.753 74.2783 302.069 73.6426 304.007 72.3711C305.944 71.0693 307.412 69.2681 308.411 66.9673C309.441 64.6665 309.955 62.0176 309.955 59.0205C309.955 56.0234 309.441 53.3745 308.411 51.0737C307.412 48.7729 305.944 46.9868 304.007 45.7153C302.069 44.4136 299.753 43.7627 297.059 43.7627ZM361.491 37.042C364.245 37.042 366.637 37.6475 368.665 38.8584C370.694 40.0391 372.253 41.7495 373.343 43.9897C374.432 46.23 374.977 48.8486 374.977 51.8457V73.8242H378.701C379.73 73.8242 380.457 74.0664 380.881 74.5508C381.335 75.0049 381.562 75.792 381.562 76.9121C381.562 78.0322 381.335 78.8345 380.881 79.3188C380.457 79.7729 379.73 80 378.701 80H363.988C362.959 80 362.217 79.7729 361.763 79.3188C361.339 78.8345 361.127 78.0322 361.127 76.9121C361.127 75.792 361.339 75.0049 361.763 74.5508C362.217 74.0664 362.959 73.8242 363.988 73.8242H368.166V52.5269C368.166 49.8325 367.545 47.6982 366.304 46.124C365.063 44.5498 363.231 43.7627 360.809 43.7627C358.236 43.7627 355.829 44.5044 353.589 45.9878C351.379 47.4712 349.608 49.5146 348.276 52.1182C346.944 54.7217 346.278 57.6279 346.278 60.8369V73.8242H350.456C351.485 73.8242 352.212 74.0664 352.636 74.5508C353.09 75.0049 353.317 75.792 353.317 76.9121C353.317 78.0322 353.09 78.8345 352.636 79.3188C352.212 79.7729 351.485 80 350.456 80H335.743C334.714 80 333.972 79.7729 333.518 79.3188C333.094 78.8345 332.882 78.0322 332.882 76.9121C332.882 75.792 333.094 75.0049 333.518 74.5508C333.972 74.0664 334.714 73.8242 335.743 73.8242H339.467V44.2168H334.835C333.805 44.2168 333.064 43.9897 332.61 43.5356C332.186 43.0513 331.974 42.249 331.974 41.1289C331.974 40.0088 332.186 39.2217 332.61 38.7676C333.064 38.2832 333.805 38.041 334.835 38.041H342.963C343.992 38.041 344.719 38.2832 345.143 38.7676C345.597 39.2217 345.824 40.0088 345.824 41.1289V46.5781C347.822 43.4902 350.153 41.1289 352.817 39.4941C355.512 37.8594 358.403 37.042 361.491 37.042Z" fill="white"/>
</svg>
